<mxfile host="Electron" agent="Mozilla/5.0 (Macintosh; Intel Mac OS X 10_15_7) AppleWebKit/537.36 (KHTML, like Gecko) draw.io/26.0.16 Chrome/132.0.6834.196 Electron/34.2.0 Safari/537.36" version="26.0.16">
  <diagram name="Page-1" id="b520641d-4fe3-3701-9064-5fc419738815">
    <mxGraphModel dx="-527" dy="2543" grid="1" gridSize="10" guides="1" tooltips="1" connect="1" arrows="1" fold="1" page="1" pageScale="1" pageWidth="1100" pageHeight="850" background="none" math="0" shadow="0">
      <root>
        <mxCell id="0" />
        <mxCell id="1" parent="0" />
        <mxCell id="HgGfvKjObObi69bd0dLE-1" value="" style="rounded=0;whiteSpace=wrap;html=1;strokeColor=none;shadow=1;" parent="1" vertex="1">
          <mxGeometry x="5500" y="1630" width="500" height="600" as="geometry" />
        </mxCell>
        <mxCell id="HgGfvKjObObi69bd0dLE-2" value="" style="rounded=0;whiteSpace=wrap;html=1;fillColor=#808080;shadow=0;strokeColor=none;" parent="1" vertex="1">
          <mxGeometry x="5500" y="1630" width="500" height="40" as="geometry" />
        </mxCell>
        <mxCell id="HgGfvKjObObi69bd0dLE-3" value="" style="ellipse;whiteSpace=wrap;html=1;aspect=fixed;strokeColor=none;fillColor=#C4C4C4;" parent="1" vertex="1">
          <mxGeometry x="5510" y="1635" width="30" height="30" as="geometry" />
        </mxCell>
        <mxCell id="HgGfvKjObObi69bd0dLE-4" value="" style="ellipse;whiteSpace=wrap;html=1;aspect=fixed;strokeColor=none;fillColor=#C4C4C4;" parent="1" vertex="1">
          <mxGeometry x="5550" y="1635" width="30" height="30" as="geometry" />
        </mxCell>
        <mxCell id="HgGfvKjObObi69bd0dLE-5" value="" style="ellipse;whiteSpace=wrap;html=1;aspect=fixed;strokeColor=none;fillColor=#C4C4C4;" parent="1" vertex="1">
          <mxGeometry x="5590" y="1635" width="30" height="30" as="geometry" />
        </mxCell>
        <mxCell id="HgGfvKjObObi69bd0dLE-6" value="&lt;font style=&quot;font-size: 24px;&quot;&gt;( /404 )&lt;/font&gt;" style="text;html=1;align=center;verticalAlign=middle;whiteSpace=wrap;rounded=0;" parent="1" vertex="1">
          <mxGeometry x="5500" y="1673" width="500" height="30" as="geometry" />
        </mxCell>
        <mxCell id="HgGfvKjObObi69bd0dLE-7" value="&lt;font style=&quot;font-size: 36px;&quot;&gt;404 페이지&lt;/font&gt;" style="text;html=1;align=center;verticalAlign=middle;whiteSpace=wrap;rounded=0;" parent="1" vertex="1">
          <mxGeometry x="5500" y="1707" width="500" height="30" as="geometry" />
        </mxCell>
        <mxCell id="HgGfvKjObObi69bd0dLE-9" value="" style="rounded=0;whiteSpace=wrap;html=1;fillColor=#EDEDED;strokeColor=none;" parent="1" vertex="1">
          <mxGeometry x="5560" y="1780" width="380" height="400" as="geometry" />
        </mxCell>
        <mxCell id="HgGfvKjObObi69bd0dLE-97" value="" style="rounded=0;whiteSpace=wrap;html=1;strokeColor=none;shadow=1;" parent="1" vertex="1">
          <mxGeometry x="6130" y="2353.75" width="500" height="600" as="geometry" />
        </mxCell>
        <mxCell id="HgGfvKjObObi69bd0dLE-98" value="" style="rounded=0;whiteSpace=wrap;html=1;fillColor=#808080;shadow=0;strokeColor=none;" parent="1" vertex="1">
          <mxGeometry x="6130" y="2353.75" width="500" height="40" as="geometry" />
        </mxCell>
        <mxCell id="HgGfvKjObObi69bd0dLE-99" value="" style="ellipse;whiteSpace=wrap;html=1;aspect=fixed;strokeColor=none;fillColor=#C4C4C4;" parent="1" vertex="1">
          <mxGeometry x="6140" y="2358.75" width="30" height="30" as="geometry" />
        </mxCell>
        <mxCell id="HgGfvKjObObi69bd0dLE-100" value="" style="ellipse;whiteSpace=wrap;html=1;aspect=fixed;strokeColor=none;fillColor=#C4C4C4;" parent="1" vertex="1">
          <mxGeometry x="6180" y="2358.75" width="30" height="30" as="geometry" />
        </mxCell>
        <mxCell id="HgGfvKjObObi69bd0dLE-101" value="" style="ellipse;whiteSpace=wrap;html=1;aspect=fixed;strokeColor=none;fillColor=#C4C4C4;" parent="1" vertex="1">
          <mxGeometry x="6220" y="2358.75" width="30" height="30" as="geometry" />
        </mxCell>
        <mxCell id="HgGfvKjObObi69bd0dLE-102" value="&lt;span style=&quot;font-size: 24px;&quot;&gt;( /create_poll&amp;nbsp;&lt;/span&gt;&lt;span style=&quot;font-size: 24px; background-color: transparent; color: light-dark(rgb(0, 0, 0), rgb(255, 255, 255));&quot;&gt;)&lt;/span&gt;" style="text;html=1;align=center;verticalAlign=middle;whiteSpace=wrap;rounded=0;" parent="1" vertex="1">
          <mxGeometry x="6130" y="2396.75" width="500" height="30" as="geometry" />
        </mxCell>
        <mxCell id="HgGfvKjObObi69bd0dLE-103" value="&lt;span style=&quot;font-size: 36px;&quot;&gt;투표 생성 페이지&lt;/span&gt;" style="text;html=1;align=center;verticalAlign=middle;whiteSpace=wrap;rounded=0;" parent="1" vertex="1">
          <mxGeometry x="6130" y="2430.75" width="500" height="30" as="geometry" />
        </mxCell>
        <mxCell id="HgGfvKjObObi69bd0dLE-91" value="" style="shape=ext;double=1;rounded=0;whiteSpace=wrap;html=1;strokeColor=none;fillColor=#E6E6E6;" parent="1" vertex="1">
          <mxGeometry x="6220.75" y="2503.75" width="318.5" height="400" as="geometry" />
        </mxCell>
        <mxCell id="HgGfvKjObObi69bd0dLE-92" value="" style="rounded=0;whiteSpace=wrap;html=1;strokeColor=none;fillColor=#CCCCCC;" parent="1" vertex="1">
          <mxGeometry x="6247.25" y="2558.75" width="129" height="130" as="geometry" />
        </mxCell>
        <mxCell id="HgGfvKjObObi69bd0dLE-94" value="" style="rounded=0;whiteSpace=wrap;html=1;strokeColor=none;fillColor=#CCCCCC;" parent="1" vertex="1">
          <mxGeometry x="6399.25" y="2558.75" width="120" height="35" as="geometry" />
        </mxCell>
        <mxCell id="HgGfvKjObObi69bd0dLE-95" value="" style="rounded=0;whiteSpace=wrap;html=1;strokeColor=none;fillColor=#CCCCCC;" parent="1" vertex="1">
          <mxGeometry x="6399.25" y="2606.25" width="120" height="35" as="geometry" />
        </mxCell>
        <mxCell id="HgGfvKjObObi69bd0dLE-96" value="" style="rounded=0;whiteSpace=wrap;html=1;strokeColor=none;fillColor=#CCCCCC;" parent="1" vertex="1">
          <mxGeometry x="6399.25" y="2653.75" width="120" height="35" as="geometry" />
        </mxCell>
        <mxCell id="HgGfvKjObObi69bd0dLE-105" value="" style="rounded=0;whiteSpace=wrap;html=1;strokeColor=none;fillColor=#CCCCCC;" parent="1" vertex="1">
          <mxGeometry x="6247.25" y="2703.75" width="274" height="150" as="geometry" />
        </mxCell>
        <mxCell id="9fBxt_PntxUjWi5iEfns-11" style="edgeStyle=orthogonalEdgeStyle;rounded=0;orthogonalLoop=1;jettySize=auto;html=1;entryX=0.5;entryY=0;entryDx=0;entryDy=0;" edge="1" parent="1" source="HgGfvKjObObi69bd0dLE-232" target="HgGfvKjObObi69bd0dLE-476">
          <mxGeometry relative="1" as="geometry" />
        </mxCell>
        <mxCell id="9fBxt_PntxUjWi5iEfns-14" style="edgeStyle=orthogonalEdgeStyle;rounded=0;orthogonalLoop=1;jettySize=auto;html=1;entryX=0;entryY=0.5;entryDx=0;entryDy=0;" edge="1" parent="1" source="HgGfvKjObObi69bd0dLE-232" target="HgGfvKjObObi69bd0dLE-97">
          <mxGeometry relative="1" as="geometry" />
        </mxCell>
        <mxCell id="HgGfvKjObObi69bd0dLE-232" value="" style="rounded=0;whiteSpace=wrap;html=1;strokeColor=none;shadow=1;" parent="1" vertex="1">
          <mxGeometry x="5500" y="2353.75" width="500" height="600" as="geometry" />
        </mxCell>
        <mxCell id="HgGfvKjObObi69bd0dLE-233" value="" style="rounded=0;whiteSpace=wrap;html=1;fillColor=#808080;shadow=0;strokeColor=none;" parent="1" vertex="1">
          <mxGeometry x="5500" y="2353.75" width="500" height="40" as="geometry" />
        </mxCell>
        <mxCell id="HgGfvKjObObi69bd0dLE-234" value="" style="ellipse;whiteSpace=wrap;html=1;aspect=fixed;strokeColor=none;fillColor=#C4C4C4;" parent="1" vertex="1">
          <mxGeometry x="5510" y="2358.75" width="30" height="30" as="geometry" />
        </mxCell>
        <mxCell id="HgGfvKjObObi69bd0dLE-235" value="" style="ellipse;whiteSpace=wrap;html=1;aspect=fixed;strokeColor=none;fillColor=#C4C4C4;" parent="1" vertex="1">
          <mxGeometry x="5550" y="2358.75" width="30" height="30" as="geometry" />
        </mxCell>
        <mxCell id="HgGfvKjObObi69bd0dLE-236" value="" style="ellipse;whiteSpace=wrap;html=1;aspect=fixed;strokeColor=none;fillColor=#C4C4C4;" parent="1" vertex="1">
          <mxGeometry x="5590" y="2358.75" width="30" height="30" as="geometry" />
        </mxCell>
        <mxCell id="HgGfvKjObObi69bd0dLE-237" value="&lt;font style=&quot;font-size: 24px;&quot;&gt;( /&lt;/font&gt;&lt;span style=&quot;color: light-dark(rgb(0, 0, 0), rgb(255, 255, 255)); background-color: transparent; font-size: 24px;&quot;&gt;&amp;nbsp;)&lt;/span&gt;" style="text;html=1;align=center;verticalAlign=middle;whiteSpace=wrap;rounded=0;" parent="1" vertex="1">
          <mxGeometry x="5500" y="2396.75" width="500" height="30" as="geometry" />
        </mxCell>
        <mxCell id="HgGfvKjObObi69bd0dLE-238" value="&lt;span style=&quot;font-size: 36px;&quot;&gt;메인 페이지&lt;/span&gt;" style="text;html=1;align=center;verticalAlign=middle;whiteSpace=wrap;rounded=0;" parent="1" vertex="1">
          <mxGeometry x="5500" y="2430.75" width="500" height="30" as="geometry" />
        </mxCell>
        <mxCell id="HgGfvKjObObi69bd0dLE-239" value="" style="shape=ext;double=1;rounded=0;whiteSpace=wrap;html=1;strokeColor=none;fillColor=#CCCCCC;" parent="1" vertex="1">
          <mxGeometry x="5560" y="2503.75" width="380" height="60" as="geometry" />
        </mxCell>
        <mxCell id="HgGfvKjObObi69bd0dLE-240" value="" style="shape=ext;double=1;rounded=0;whiteSpace=wrap;html=1;strokeColor=none;fillColor=#CCCCCC;" parent="1" vertex="1">
          <mxGeometry x="5560" y="2591.25" width="380" height="312.5" as="geometry" />
        </mxCell>
        <mxCell id="HgGfvKjObObi69bd0dLE-242" value="" style="rounded=0;whiteSpace=wrap;html=1;strokeColor=none;shadow=1;" parent="1" vertex="1">
          <mxGeometry x="6750.75" y="2348" width="500" height="600" as="geometry" />
        </mxCell>
        <mxCell id="HgGfvKjObObi69bd0dLE-243" value="" style="rounded=0;whiteSpace=wrap;html=1;fillColor=#808080;shadow=0;strokeColor=none;" parent="1" vertex="1">
          <mxGeometry x="6750.75" y="2348" width="500" height="40" as="geometry" />
        </mxCell>
        <mxCell id="HgGfvKjObObi69bd0dLE-244" value="" style="ellipse;whiteSpace=wrap;html=1;aspect=fixed;strokeColor=none;fillColor=#C4C4C4;" parent="1" vertex="1">
          <mxGeometry x="6760.75" y="2353" width="30" height="30" as="geometry" />
        </mxCell>
        <mxCell id="HgGfvKjObObi69bd0dLE-245" value="" style="ellipse;whiteSpace=wrap;html=1;aspect=fixed;strokeColor=none;fillColor=#C4C4C4;" parent="1" vertex="1">
          <mxGeometry x="6800.75" y="2353" width="30" height="30" as="geometry" />
        </mxCell>
        <mxCell id="HgGfvKjObObi69bd0dLE-246" value="" style="ellipse;whiteSpace=wrap;html=1;aspect=fixed;strokeColor=none;fillColor=#C4C4C4;" parent="1" vertex="1">
          <mxGeometry x="6840.75" y="2353" width="30" height="30" as="geometry" />
        </mxCell>
        <mxCell id="HgGfvKjObObi69bd0dLE-247" value="&lt;font style=&quot;font-size: 24px;&quot;&gt;( /develops&lt;/font&gt;&lt;span style=&quot;color: light-dark(rgb(0, 0, 0), rgb(255, 255, 255)); background-color: transparent; font-size: 24px;&quot;&gt;&amp;nbsp;)&lt;/span&gt;" style="text;html=1;align=center;verticalAlign=middle;whiteSpace=wrap;rounded=0;" parent="1" vertex="1">
          <mxGeometry x="6750.75" y="2391" width="500" height="30" as="geometry" />
        </mxCell>
        <mxCell id="HgGfvKjObObi69bd0dLE-248" value="&lt;span style=&quot;font-size: 36px;&quot;&gt;개발자들&lt;/span&gt;" style="text;html=1;align=center;verticalAlign=middle;whiteSpace=wrap;rounded=0;" parent="1" vertex="1">
          <mxGeometry x="6750.75" y="2425" width="500" height="30" as="geometry" />
        </mxCell>
        <mxCell id="HgGfvKjObObi69bd0dLE-249" value="" style="shape=ext;double=1;rounded=0;whiteSpace=wrap;html=1;strokeColor=none;fillColor=#CCCCCC;" parent="1" vertex="1">
          <mxGeometry x="6810.75" y="2498" width="380" height="60" as="geometry" />
        </mxCell>
        <mxCell id="HgGfvKjObObi69bd0dLE-250" value="" style="shape=ext;double=1;rounded=0;whiteSpace=wrap;html=1;strokeColor=none;fillColor=#CCCCCC;" parent="1" vertex="1">
          <mxGeometry x="6810.75" y="2585.5" width="380" height="312.5" as="geometry" />
        </mxCell>
        <mxCell id="9fBxt_PntxUjWi5iEfns-13" style="edgeStyle=orthogonalEdgeStyle;rounded=0;orthogonalLoop=1;jettySize=auto;html=1;entryX=0;entryY=0.5;entryDx=0;entryDy=0;" edge="1" parent="1" source="HgGfvKjObObi69bd0dLE-475" target="9fBxt_PntxUjWi5iEfns-2">
          <mxGeometry relative="1" as="geometry" />
        </mxCell>
        <mxCell id="HgGfvKjObObi69bd0dLE-475" value="" style="rounded=0;whiteSpace=wrap;html=1;strokeColor=none;shadow=1;" parent="1" vertex="1">
          <mxGeometry x="5500" y="3070" width="500" height="600" as="geometry" />
        </mxCell>
        <mxCell id="HgGfvKjObObi69bd0dLE-476" value="" style="rounded=0;whiteSpace=wrap;html=1;fillColor=#808080;shadow=0;strokeColor=none;" parent="1" vertex="1">
          <mxGeometry x="5500" y="3070" width="500" height="40" as="geometry" />
        </mxCell>
        <mxCell id="HgGfvKjObObi69bd0dLE-477" value="" style="ellipse;whiteSpace=wrap;html=1;aspect=fixed;strokeColor=none;fillColor=#C4C4C4;" parent="1" vertex="1">
          <mxGeometry x="5510" y="3075" width="30" height="30" as="geometry" />
        </mxCell>
        <mxCell id="HgGfvKjObObi69bd0dLE-478" value="" style="ellipse;whiteSpace=wrap;html=1;aspect=fixed;strokeColor=none;fillColor=#C4C4C4;" parent="1" vertex="1">
          <mxGeometry x="5550" y="3075" width="30" height="30" as="geometry" />
        </mxCell>
        <mxCell id="HgGfvKjObObi69bd0dLE-479" value="" style="ellipse;whiteSpace=wrap;html=1;aspect=fixed;strokeColor=none;fillColor=#C4C4C4;" parent="1" vertex="1">
          <mxGeometry x="5590" y="3075" width="30" height="30" as="geometry" />
        </mxCell>
        <mxCell id="HgGfvKjObObi69bd0dLE-480" value="&lt;span style=&quot;font-size: 24px;&quot;&gt;( /poll )&lt;/span&gt;" style="text;html=1;align=center;verticalAlign=middle;whiteSpace=wrap;rounded=0;" parent="1" vertex="1">
          <mxGeometry x="5500" y="3113" width="500" height="30" as="geometry" />
        </mxCell>
        <mxCell id="HgGfvKjObObi69bd0dLE-481" value="&lt;span style=&quot;font-size: 36px;&quot;&gt;투표 하기 페이지&lt;/span&gt;" style="text;html=1;align=center;verticalAlign=middle;whiteSpace=wrap;rounded=0;" parent="1" vertex="1">
          <mxGeometry x="5500" y="3147" width="500" height="30" as="geometry" />
        </mxCell>
        <mxCell id="HgGfvKjObObi69bd0dLE-482" value="" style="shape=ext;double=1;rounded=0;whiteSpace=wrap;html=1;strokeColor=none;fillColor=#E6E6E6;" parent="1" vertex="1">
          <mxGeometry x="5560" y="3220" width="380" height="60" as="geometry" />
        </mxCell>
        <mxCell id="HgGfvKjObObi69bd0dLE-483" value="" style="shape=ext;double=1;rounded=0;whiteSpace=wrap;html=1;strokeColor=none;fillColor=#E6E6E6;" parent="1" vertex="1">
          <mxGeometry x="5561" y="3300" width="380" height="240" as="geometry" />
        </mxCell>
        <mxCell id="HgGfvKjObObi69bd0dLE-484" value="" style="shape=ext;double=1;rounded=0;whiteSpace=wrap;html=1;strokeColor=none;fillColor=#E6E6E6;" parent="1" vertex="1">
          <mxGeometry x="5560" y="3560" width="380" height="60" as="geometry" />
        </mxCell>
        <mxCell id="HgGfvKjObObi69bd0dLE-485" value="" style="rounded=0;whiteSpace=wrap;html=1;strokeColor=none;fillColor=#CCCCCC;" parent="1" vertex="1">
          <mxGeometry x="5610" y="3355" width="129" height="130" as="geometry" />
        </mxCell>
        <mxCell id="HgGfvKjObObi69bd0dLE-487" value="" style="rounded=0;whiteSpace=wrap;html=1;strokeColor=none;fillColor=#CCCCCC;" parent="1" vertex="1">
          <mxGeometry x="5762" y="3355" width="120" height="35" as="geometry" />
        </mxCell>
        <mxCell id="HgGfvKjObObi69bd0dLE-488" value="" style="rounded=0;whiteSpace=wrap;html=1;strokeColor=none;fillColor=#CCCCCC;" parent="1" vertex="1">
          <mxGeometry x="5762" y="3402.5" width="120" height="35" as="geometry" />
        </mxCell>
        <mxCell id="HgGfvKjObObi69bd0dLE-489" value="" style="rounded=0;whiteSpace=wrap;html=1;strokeColor=none;fillColor=#CCCCCC;" parent="1" vertex="1">
          <mxGeometry x="5762" y="3450" width="120" height="35" as="geometry" />
        </mxCell>
        <mxCell id="9fBxt_PntxUjWi5iEfns-2" value="" style="rounded=0;whiteSpace=wrap;html=1;strokeColor=none;shadow=1;" vertex="1" parent="1">
          <mxGeometry x="6130" y="3070" width="500" height="600" as="geometry" />
        </mxCell>
        <mxCell id="9fBxt_PntxUjWi5iEfns-3" value="" style="rounded=0;whiteSpace=wrap;html=1;fillColor=#808080;shadow=0;strokeColor=none;" vertex="1" parent="1">
          <mxGeometry x="6130" y="3070" width="500" height="40" as="geometry" />
        </mxCell>
        <mxCell id="9fBxt_PntxUjWi5iEfns-4" value="" style="ellipse;whiteSpace=wrap;html=1;aspect=fixed;strokeColor=none;fillColor=#C4C4C4;" vertex="1" parent="1">
          <mxGeometry x="6140" y="3075" width="30" height="30" as="geometry" />
        </mxCell>
        <mxCell id="9fBxt_PntxUjWi5iEfns-5" value="" style="ellipse;whiteSpace=wrap;html=1;aspect=fixed;strokeColor=none;fillColor=#C4C4C4;" vertex="1" parent="1">
          <mxGeometry x="6180" y="3075" width="30" height="30" as="geometry" />
        </mxCell>
        <mxCell id="9fBxt_PntxUjWi5iEfns-6" value="" style="ellipse;whiteSpace=wrap;html=1;aspect=fixed;strokeColor=none;fillColor=#C4C4C4;" vertex="1" parent="1">
          <mxGeometry x="6220" y="3075" width="30" height="30" as="geometry" />
        </mxCell>
        <mxCell id="9fBxt_PntxUjWi5iEfns-7" value="&lt;font style=&quot;font-size: 24px;&quot;&gt;( /result&lt;/font&gt;&lt;span style=&quot;color: light-dark(rgb(0, 0, 0), rgb(255, 255, 255)); background-color: transparent; font-size: 24px;&quot;&gt;&amp;nbsp;)&lt;/span&gt;" style="text;html=1;align=center;verticalAlign=middle;whiteSpace=wrap;rounded=0;" vertex="1" parent="1">
          <mxGeometry x="6130" y="3113" width="500" height="30" as="geometry" />
        </mxCell>
        <mxCell id="9fBxt_PntxUjWi5iEfns-8" value="&lt;span style=&quot;font-size: 36px;&quot;&gt;투표 결과 페이지&lt;/span&gt;" style="text;html=1;align=center;verticalAlign=middle;whiteSpace=wrap;rounded=0;" vertex="1" parent="1">
          <mxGeometry x="6130" y="3147" width="500" height="30" as="geometry" />
        </mxCell>
        <mxCell id="9fBxt_PntxUjWi5iEfns-9" value="" style="shape=ext;double=1;rounded=0;whiteSpace=wrap;html=1;strokeColor=none;fillColor=#CCCCCC;" vertex="1" parent="1">
          <mxGeometry x="6190" y="3220" width="380" height="60" as="geometry" />
        </mxCell>
        <mxCell id="9fBxt_PntxUjWi5iEfns-10" value="" style="shape=ext;double=1;rounded=0;whiteSpace=wrap;html=1;strokeColor=none;fillColor=#CCCCCC;" vertex="1" parent="1">
          <mxGeometry x="6190" y="3307.5" width="380" height="312.5" as="geometry" />
        </mxCell>
        <mxCell id="9fBxt_PntxUjWi5iEfns-15" style="edgeStyle=orthogonalEdgeStyle;rounded=0;orthogonalLoop=1;jettySize=auto;html=1;entryX=0.003;entryY=0.511;entryDx=0;entryDy=0;entryPerimeter=0;" edge="1" parent="1" source="HgGfvKjObObi69bd0dLE-97" target="HgGfvKjObObi69bd0dLE-242">
          <mxGeometry relative="1" as="geometry" />
        </mxCell>
      </root>
    </mxGraphModel>
  </diagram>
</mxfile>
